<?xml version="1.0" encoding="UTF-8" standalone="no"?>
<!DOCTYPE svg PUBLIC "-//W3C//DTD SVG 1.1//EN"
 "http://www.w3.org/Graphics/SVG/1.1/DTD/svg11.dtd">
<!-- Generated by graphviz version 2.38.0 (20140413.2041)
 -->
<!-- Title: finite_state_machine Pages: 1 -->
<svg width="172pt" height="52pt"
 viewBox="0.00 0.00 171.60 52.00" xmlns="http://www.w3.org/2000/svg" xmlns:xlink="http://www.w3.org/1999/xlink">
<g id="graph0" class="graph" transform="scale(1 1) rotate(0) translate(4 48)">
<title>finite_state_machine</title>
<polygon fill="white" stroke="none" points="-4,4 -4,-48 167.6,-48 167.6,4 -4,4"/>
<!-- s1 -->
<g id="node1" class="node"><title>s1</title>
<ellipse fill="none" stroke="black" cx="141.6" cy="-22" rx="18" ry="18"/>
<ellipse fill="none" stroke="black" cx="141.6" cy="-22" rx="22" ry="22"/>
<text text-anchor="middle" x="141.6" y="-19.2" font-family="arial" font-size="11.00">s1</text>
</g>
<!-- start -->
<g id="node2" class="node"><title>start</title>
<ellipse fill="black" stroke="black" cx="1.8" cy="-22" rx="1.8" ry="1.8"/>
</g>
<!-- s0 -->
<g id="node3" class="node"><title>s0</title>
<ellipse fill="none" stroke="black" cx="58.6" cy="-22" rx="18" ry="18"/>
<text text-anchor="middle" x="58.6" y="-19.2" font-family="arial" font-size="11.00">s0</text>
</g>
<!-- start&#45;&gt;s0 -->
<g id="edge1" class="edge"><title>start&#45;&gt;s0</title>
<path fill="none" stroke="black" d="M3.75116,-22C7.11489,-22 18.875,-22 30.5503,-22"/>
<polygon fill="black" stroke="black" points="30.5754,-25.5001 40.5754,-22 30.5753,-18.5001 30.5754,-25.5001"/>
</g>
<!-- s0&#45;&gt;s1 -->
<g id="edge2" class="edge"><title>s0&#45;&gt;s1</title>
<path fill="none" stroke="black" d="M76.778,-22C86.2095,-22 98.2007,-22 109.237,-22"/>
<polygon fill="black" stroke="black" points="109.411,-25.5001 119.411,-22 109.411,-18.5001 109.411,-25.5001"/>
<text text-anchor="middle" x="98.1" y="-25.2" font-family="arial" font-size="11.00">0</text>
</g>
</g>
</svg>
