<?xml version="1.0" encoding="UTF-8" standalone="no"?>
<!DOCTYPE svg PUBLIC "-//W3C//DTD SVG 1.1//EN"
 "http://www.w3.org/Graphics/SVG/1.1/DTD/svg11.dtd">
<!-- Generated by graphviz version 2.38.0 (20140413.2041)
 -->
<!-- Title: finite_state_machine Pages: 1 -->
<svg width="484pt" height="160pt"
 viewBox="0.00 0.00 483.60 159.63" xmlns="http://www.w3.org/2000/svg" xmlns:xlink="http://www.w3.org/1999/xlink">
<g id="graph0" class="graph" transform="scale(1 1) rotate(0) translate(4 155.625)">
<title>finite_state_machine</title>
<polygon fill="white" stroke="none" points="-4,4 -4,-155.625 479.6,-155.625 479.6,4 -4,4"/>
<!-- s7 -->
<g id="node1" class="node"><title>s7</title>
<ellipse fill="none" stroke="black" cx="453.6" cy="-108.625" rx="18" ry="18"/>
<ellipse fill="none" stroke="black" cx="453.6" cy="-108.625" rx="22" ry="22"/>
<text text-anchor="middle" x="453.6" y="-105.825" font-family="arial" font-size="11.00">s7</text>
</g>
<!-- start -->
<g id="node2" class="node"><title>start</title>
<ellipse fill="black" stroke="black" cx="1.8" cy="-131.625" rx="1.8" ry="1.8"/>
</g>
<!-- s0 -->
<g id="node3" class="node"><title>s0</title>
<ellipse fill="none" stroke="black" cx="58.6" cy="-131.625" rx="18" ry="18"/>
<text text-anchor="middle" x="58.6" y="-128.825" font-family="arial" font-size="11.00">s0</text>
</g>
<!-- start&#45;&gt;s0 -->
<g id="edge1" class="edge"><title>start&#45;&gt;s0</title>
<path fill="none" stroke="black" d="M3.75116,-131.625C7.11489,-131.625 18.875,-131.625 30.5503,-131.625"/>
<polygon fill="black" stroke="black" points="30.5754,-135.125 40.5754,-131.625 30.5753,-128.125 30.5754,-135.125"/>
</g>
<!-- s0&#45;&gt;s7 -->
<g id="edge3" class="edge"><title>s0&#45;&gt;s7</title>
<path fill="none" stroke="black" d="M76.4504,-134.423C91.8158,-136.73 115.168,-139.625 135.6,-139.625 135.6,-139.625 135.6,-139.625 372.6,-139.625 391.05,-139.625 410.375,-132.367 425.409,-124.875"/>
<polygon fill="black" stroke="black" points="427.422,-127.77 434.616,-119.992 424.142,-121.586 427.422,-127.77"/>
<text text-anchor="middle" x="254.1" y="-142.825" font-family="arial" font-size="11.00">ε</text>
</g>
<!-- s1 -->
<g id="node4" class="node"><title>s1</title>
<ellipse fill="none" stroke="black" cx="136.6" cy="-56.625" rx="18" ry="18"/>
<text text-anchor="middle" x="136.6" y="-53.825" font-family="arial" font-size="11.00">s1</text>
</g>
<!-- s0&#45;&gt;s1 -->
<g id="edge2" class="edge"><title>s0&#45;&gt;s1</title>
<path fill="none" stroke="black" d="M72.1499,-119.24C84.1023,-107.445 102.272,-89.5146 116.109,-75.8595"/>
<polygon fill="black" stroke="black" points="118.624,-78.2946 123.284,-68.7793 113.707,-73.3122 118.624,-78.2946"/>
<text text-anchor="middle" x="97.6" y="-99.825" font-family="arial" font-size="11.00">ε</text>
</g>
<!-- s2 -->
<g id="node5" class="node"><title>s2</title>
<ellipse fill="none" stroke="black" cx="214.6" cy="-93.625" rx="18" ry="18"/>
<text text-anchor="middle" x="214.6" y="-90.825" font-family="arial" font-size="11.00">s2</text>
</g>
<!-- s1&#45;&gt;s2 -->
<g id="edge4" class="edge"><title>s1&#45;&gt;s2</title>
<path fill="none" stroke="black" d="M152.98,-64.1125C163.213,-69.0946 176.888,-75.7521 188.659,-81.4828"/>
<polygon fill="black" stroke="black" points="187.459,-84.7912 197.982,-86.0216 190.523,-78.4975 187.459,-84.7912"/>
<text text-anchor="middle" x="175.6" y="-79.825" font-family="arial" font-size="11.00">ε</text>
</g>
<!-- s4 -->
<g id="node6" class="node"><title>s4</title>
<ellipse fill="none" stroke="black" cx="214.6" cy="-39.625" rx="18" ry="18"/>
<text text-anchor="middle" x="214.6" y="-36.825" font-family="arial" font-size="11.00">s4</text>
</g>
<!-- s1&#45;&gt;s4 -->
<g id="edge5" class="edge"><title>s1&#45;&gt;s4</title>
<path fill="none" stroke="black" d="M154.467,-52.8522C164.011,-50.7172 176.163,-47.999 186.966,-45.5826"/>
<polygon fill="black" stroke="black" points="187.785,-48.9859 196.78,-43.3873 186.257,-42.1547 187.785,-48.9859"/>
<text text-anchor="middle" x="175.6" y="-52.825" font-family="arial" font-size="11.00">ε</text>
</g>
<!-- s3 -->
<g id="node7" class="node"><title>s3</title>
<ellipse fill="none" stroke="black" cx="293.6" cy="-93.625" rx="18" ry="18"/>
<text text-anchor="middle" x="293.6" y="-90.825" font-family="arial" font-size="11.00">s3</text>
</g>
<!-- s2&#45;&gt;s3 -->
<g id="edge6" class="edge"><title>s2&#45;&gt;s3</title>
<path fill="none" stroke="black" d="M232.689,-93.625C242.259,-93.625 254.417,-93.625 265.277,-93.625"/>
<polygon fill="black" stroke="black" points="265.559,-97.1251 275.559,-93.625 265.559,-90.1251 265.559,-97.1251"/>
<text text-anchor="middle" x="254.1" y="-96.825" font-family="arial" font-size="11.00">0</text>
</g>
<!-- s5 -->
<g id="node9" class="node"><title>s5</title>
<ellipse fill="none" stroke="black" cx="293.6" cy="-39.625" rx="18" ry="18"/>
<text text-anchor="middle" x="293.6" y="-36.825" font-family="arial" font-size="11.00">s5</text>
</g>
<!-- s4&#45;&gt;s5 -->
<g id="edge8" class="edge"><title>s4&#45;&gt;s5</title>
<path fill="none" stroke="black" d="M232.689,-39.625C242.259,-39.625 254.417,-39.625 265.277,-39.625"/>
<polygon fill="black" stroke="black" points="265.559,-43.1251 275.559,-39.625 265.559,-36.1251 265.559,-43.1251"/>
<text text-anchor="middle" x="254.1" y="-42.825" font-family="arial" font-size="11.00">1</text>
</g>
<!-- s6 -->
<g id="node8" class="node"><title>s6</title>
<ellipse fill="none" stroke="black" cx="371.6" cy="-61.625" rx="18" ry="18"/>
<text text-anchor="middle" x="371.6" y="-58.825" font-family="arial" font-size="11.00">s6</text>
</g>
<!-- s3&#45;&gt;s6 -->
<g id="edge7" class="edge"><title>s3&#45;&gt;s6</title>
<path fill="none" stroke="black" d="M310.347,-86.9946C320.368,-82.7752 333.577,-77.2135 345.073,-72.3732"/>
<polygon fill="black" stroke="black" points="346.753,-75.4634 354.611,-68.357 344.037,-69.0119 346.753,-75.4634"/>
<text text-anchor="middle" x="332.6" y="-81.825" font-family="arial" font-size="11.00">ε</text>
</g>
<!-- s6&#45;&gt;s7 -->
<g id="edge10" class="edge"><title>s6&#45;&gt;s7</title>
<path fill="none" stroke="black" d="M387.647,-70.4653C398.282,-76.7135 412.836,-85.2636 425.471,-92.6869"/>
<polygon fill="black" stroke="black" points="423.854,-95.7963 434.25,-97.8441 427.4,-89.7608 423.854,-95.7963"/>
<text text-anchor="middle" x="410.6" y="-88.825" font-family="arial" font-size="11.00">ε</text>
</g>
<!-- s6&#45;&gt;s1 -->
<g id="edge11" class="edge"><title>s6&#45;&gt;s1</title>
<path fill="none" stroke="black" d="M359.15,-47.804C348.319,-35.9067 330.886,-19.5893 311.6,-12.625 263.527,4.73439 245.11,3.47186 196.6,-12.625 181.91,-17.4993 167.913,-27.6112 157.242,-36.9133"/>
<polygon fill="black" stroke="black" points="154.774,-34.4279 149.773,-43.7685 159.507,-39.5849 154.774,-34.4279"/>
<text text-anchor="middle" x="254.1" y="-3.825" font-family="arial" font-size="11.00">ε</text>
</g>
<!-- s5&#45;&gt;s6 -->
<g id="edge9" class="edge"><title>s5&#45;&gt;s6</title>
<path fill="none" stroke="black" d="M311.091,-44.3987C320.851,-47.2239 333.434,-50.8663 344.513,-54.0735"/>
<polygon fill="black" stroke="black" points="343.562,-57.442 354.141,-56.8606 345.509,-50.718 343.562,-57.442"/>
<text text-anchor="middle" x="332.6" y="-54.825" font-family="arial" font-size="11.00">ε</text>
</g>
</g>
</svg>
