<?xml version="1.0" encoding="UTF-8" standalone="no"?>
<!DOCTYPE svg PUBLIC "-//W3C//DTD SVG 1.1//EN"
 "http://www.w3.org/Graphics/SVG/1.1/DTD/svg11.dtd">
<!-- Generated by graphviz version 2.38.0 (20140413.2041)
 -->
<!-- Title: finite_state_machine Pages: 1 -->
<svg width="643pt" height="52pt"
 viewBox="0.00 0.00 642.60 52.00" xmlns="http://www.w3.org/2000/svg" xmlns:xlink="http://www.w3.org/1999/xlink">
<g id="graph0" class="graph" transform="scale(1 1) rotate(0) translate(4 48)">
<title>finite_state_machine</title>
<polygon fill="white" stroke="none" points="-4,4 -4,-48 638.6,-48 638.6,4 -4,4"/>
<!-- s7 -->
<g id="node1" class="node"><title>s7</title>
<ellipse fill="none" stroke="black" cx="612.6" cy="-22" rx="18" ry="18"/>
<ellipse fill="none" stroke="black" cx="612.6" cy="-22" rx="22" ry="22"/>
<text text-anchor="middle" x="612.6" y="-19.2" font-family="arial" font-size="11.00">s7</text>
</g>
<!-- start -->
<g id="node2" class="node"><title>start</title>
<ellipse fill="black" stroke="black" cx="1.8" cy="-22" rx="1.8" ry="1.8"/>
</g>
<!-- s0 -->
<g id="node3" class="node"><title>s0</title>
<ellipse fill="none" stroke="black" cx="58.6" cy="-22" rx="18" ry="18"/>
<text text-anchor="middle" x="58.6" y="-19.2" font-family="arial" font-size="11.00">s0</text>
</g>
<!-- start&#45;&gt;s0 -->
<g id="edge1" class="edge"><title>start&#45;&gt;s0</title>
<path fill="none" stroke="black" d="M3.75116,-22C7.11489,-22 18.875,-22 30.5503,-22"/>
<polygon fill="black" stroke="black" points="30.5754,-25.5001 40.5754,-22 30.5753,-18.5001 30.5754,-25.5001"/>
</g>
<!-- s1 -->
<g id="node4" class="node"><title>s1</title>
<ellipse fill="none" stroke="black" cx="137.6" cy="-22" rx="18" ry="18"/>
<text text-anchor="middle" x="137.6" y="-19.2" font-family="arial" font-size="11.00">s1</text>
</g>
<!-- s0&#45;&gt;s1 -->
<g id="edge2" class="edge"><title>s0&#45;&gt;s1</title>
<path fill="none" stroke="black" d="M76.6888,-22C86.259,-22 98.4172,-22 109.277,-22"/>
<polygon fill="black" stroke="black" points="109.559,-25.5001 119.559,-22 109.559,-18.5001 109.559,-25.5001"/>
<text text-anchor="middle" x="98.1" y="-25.2" font-family="arial" font-size="11.00">1</text>
</g>
<!-- s2 -->
<g id="node5" class="node"><title>s2</title>
<ellipse fill="none" stroke="black" cx="215.6" cy="-22" rx="18" ry="18"/>
<text text-anchor="middle" x="215.6" y="-19.2" font-family="arial" font-size="11.00">s2</text>
</g>
<!-- s1&#45;&gt;s2 -->
<g id="edge3" class="edge"><title>s1&#45;&gt;s2</title>
<path fill="none" stroke="black" d="M155.846,-22C165.077,-22 176.665,-22 187.105,-22"/>
<polygon fill="black" stroke="black" points="187.423,-25.5001 197.423,-22 187.423,-18.5001 187.423,-25.5001"/>
<text text-anchor="middle" x="176.6" y="-25.2" font-family="arial" font-size="11.00">ε</text>
</g>
<!-- s3 -->
<g id="node6" class="node"><title>s3</title>
<ellipse fill="none" stroke="black" cx="294.6" cy="-22" rx="18" ry="18"/>
<text text-anchor="middle" x="294.6" y="-19.2" font-family="arial" font-size="11.00">s3</text>
</g>
<!-- s2&#45;&gt;s3 -->
<g id="edge4" class="edge"><title>s2&#45;&gt;s3</title>
<path fill="none" stroke="black" d="M233.689,-22C243.259,-22 255.417,-22 266.277,-22"/>
<polygon fill="black" stroke="black" points="266.559,-25.5001 276.559,-22 266.559,-18.5001 266.559,-25.5001"/>
<text text-anchor="middle" x="255.1" y="-25.2" font-family="arial" font-size="11.00">1</text>
</g>
<!-- s4 -->
<g id="node7" class="node"><title>s4</title>
<ellipse fill="none" stroke="black" cx="372.6" cy="-22" rx="18" ry="18"/>
<text text-anchor="middle" x="372.6" y="-19.2" font-family="arial" font-size="11.00">s4</text>
</g>
<!-- s3&#45;&gt;s4 -->
<g id="edge5" class="edge"><title>s3&#45;&gt;s4</title>
<path fill="none" stroke="black" d="M312.846,-22C322.077,-22 333.665,-22 344.105,-22"/>
<polygon fill="black" stroke="black" points="344.423,-25.5001 354.423,-22 344.423,-18.5001 344.423,-25.5001"/>
<text text-anchor="middle" x="333.6" y="-25.2" font-family="arial" font-size="11.00">ε</text>
</g>
<!-- s5 -->
<g id="node8" class="node"><title>s5</title>
<ellipse fill="none" stroke="black" cx="451.6" cy="-22" rx="18" ry="18"/>
<text text-anchor="middle" x="451.6" y="-19.2" font-family="arial" font-size="11.00">s5</text>
</g>
<!-- s4&#45;&gt;s5 -->
<g id="edge6" class="edge"><title>s4&#45;&gt;s5</title>
<path fill="none" stroke="black" d="M390.689,-22C400.259,-22 412.417,-22 423.277,-22"/>
<polygon fill="black" stroke="black" points="423.559,-25.5001 433.559,-22 423.559,-18.5001 423.559,-25.5001"/>
<text text-anchor="middle" x="412.1" y="-25.2" font-family="arial" font-size="11.00">0</text>
</g>
<!-- s6 -->
<g id="node9" class="node"><title>s6</title>
<ellipse fill="none" stroke="black" cx="529.6" cy="-22" rx="18" ry="18"/>
<text text-anchor="middle" x="529.6" y="-19.2" font-family="arial" font-size="11.00">s6</text>
</g>
<!-- s5&#45;&gt;s6 -->
<g id="edge7" class="edge"><title>s5&#45;&gt;s6</title>
<path fill="none" stroke="black" d="M469.846,-22C479.077,-22 490.665,-22 501.105,-22"/>
<polygon fill="black" stroke="black" points="501.423,-25.5001 511.423,-22 501.423,-18.5001 501.423,-25.5001"/>
<text text-anchor="middle" x="490.6" y="-25.2" font-family="arial" font-size="11.00">ε</text>
</g>
<!-- s6&#45;&gt;s7 -->
<g id="edge8" class="edge"><title>s6&#45;&gt;s7</title>
<path fill="none" stroke="black" d="M547.778,-22C557.21,-22 569.201,-22 580.237,-22"/>
<polygon fill="black" stroke="black" points="580.411,-25.5001 590.411,-22 580.411,-18.5001 580.411,-25.5001"/>
<text text-anchor="middle" x="569.1" y="-25.2" font-family="arial" font-size="11.00">0</text>
</g>
</g>
</svg>
