<?xml version="1.0" encoding="UTF-8" standalone="no"?>
<!DOCTYPE svg PUBLIC "-//W3C//DTD SVG 1.1//EN"
 "http://www.w3.org/Graphics/SVG/1.1/DTD/svg11.dtd">
<!-- Generated by graphviz version 2.38.0 (20140413.2041)
 -->
<!-- Title: finite_state_machine Pages: 1 -->
<svg width="968pt" height="84pt"
 viewBox="0.00 0.00 967.79 84.09" xmlns="http://www.w3.org/2000/svg" xmlns:xlink="http://www.w3.org/1999/xlink">
<g id="graph0" class="graph" transform="scale(1 1) rotate(0) translate(4 80.0936)">
<title>finite_state_machine</title>
<polygon fill="white" stroke="none" points="-4,4 -4,-80.0936 963.787,-80.0936 963.787,4 -4,4"/>
<!-- s11 -->
<g id="node1" class="node"><title>s11</title>
<ellipse fill="none" stroke="black" cx="934.74" cy="-51.0468" rx="21.0862" ry="21.0862"/>
<ellipse fill="none" stroke="black" cx="934.74" cy="-51.0468" rx="25.0937" ry="25.0937"/>
<text text-anchor="middle" x="934.74" y="-48.2468" font-family="arial" font-size="11.00">s11</text>
</g>
<!-- start -->
<g id="node2" class="node"><title>start</title>
<ellipse fill="black" stroke="black" cx="1.8" cy="-56.0468" rx="1.8" ry="1.8"/>
</g>
<!-- s0 -->
<g id="node3" class="node"><title>s0</title>
<ellipse fill="none" stroke="black" cx="58.6" cy="-56.0468" rx="18" ry="18"/>
<text text-anchor="middle" x="58.6" y="-53.2468" font-family="arial" font-size="11.00">s0</text>
</g>
<!-- start&#45;&gt;s0 -->
<g id="edge1" class="edge"><title>start&#45;&gt;s0</title>
<path fill="none" stroke="black" d="M3.75116,-56.0468C7.11489,-56.0468 18.875,-56.0468 30.5503,-56.0468"/>
<polygon fill="black" stroke="black" points="30.5754,-59.5469 40.5754,-56.0468 30.5753,-52.5469 30.5754,-59.5469"/>
</g>
<!-- s1 -->
<g id="node4" class="node"><title>s1</title>
<ellipse fill="none" stroke="black" cx="137.6" cy="-56.0468" rx="18" ry="18"/>
<text text-anchor="middle" x="137.6" y="-53.2468" font-family="arial" font-size="11.00">s1</text>
</g>
<!-- s0&#45;&gt;s1 -->
<g id="edge2" class="edge"><title>s0&#45;&gt;s1</title>
<path fill="none" stroke="black" d="M76.6888,-56.0468C86.259,-56.0468 98.4172,-56.0468 109.277,-56.0468"/>
<polygon fill="black" stroke="black" points="109.559,-59.5469 119.559,-56.0468 109.559,-52.5469 109.559,-59.5469"/>
<text text-anchor="middle" x="98.1" y="-59.2468" font-family="arial" font-size="11.00">1</text>
</g>
<!-- s2 -->
<g id="node5" class="node"><title>s2</title>
<ellipse fill="none" stroke="black" cx="215.6" cy="-56.0468" rx="18" ry="18"/>
<text text-anchor="middle" x="215.6" y="-53.2468" font-family="arial" font-size="11.00">s2</text>
</g>
<!-- s1&#45;&gt;s2 -->
<g id="edge3" class="edge"><title>s1&#45;&gt;s2</title>
<path fill="none" stroke="black" d="M155.846,-56.0468C165.077,-56.0468 176.665,-56.0468 187.105,-56.0468"/>
<polygon fill="black" stroke="black" points="187.423,-59.5469 197.423,-56.0468 187.423,-52.5469 187.423,-59.5469"/>
<text text-anchor="middle" x="176.6" y="-59.2468" font-family="arial" font-size="11.00">ε</text>
</g>
<!-- s3 -->
<g id="node6" class="node"><title>s3</title>
<ellipse fill="none" stroke="black" cx="294.6" cy="-56.0468" rx="18" ry="18"/>
<text text-anchor="middle" x="294.6" y="-53.2468" font-family="arial" font-size="11.00">s3</text>
</g>
<!-- s2&#45;&gt;s3 -->
<g id="edge4" class="edge"><title>s2&#45;&gt;s3</title>
<path fill="none" stroke="black" d="M233.689,-56.0468C243.259,-56.0468 255.417,-56.0468 266.277,-56.0468"/>
<polygon fill="black" stroke="black" points="266.559,-59.5469 276.559,-56.0468 266.559,-52.5469 266.559,-59.5469"/>
<text text-anchor="middle" x="255.1" y="-59.2468" font-family="arial" font-size="11.00">1</text>
</g>
<!-- s4 -->
<g id="node7" class="node"><title>s4</title>
<ellipse fill="none" stroke="black" cx="372.6" cy="-56.0468" rx="18" ry="18"/>
<text text-anchor="middle" x="372.6" y="-53.2468" font-family="arial" font-size="11.00">s4</text>
</g>
<!-- s3&#45;&gt;s4 -->
<g id="edge5" class="edge"><title>s3&#45;&gt;s4</title>
<path fill="none" stroke="black" d="M312.846,-56.0468C322.077,-56.0468 333.665,-56.0468 344.105,-56.0468"/>
<polygon fill="black" stroke="black" points="344.423,-59.5469 354.423,-56.0468 344.423,-52.5469 344.423,-59.5469"/>
<text text-anchor="middle" x="333.6" y="-59.2468" font-family="arial" font-size="11.00">ε</text>
</g>
<!-- s5 -->
<g id="node8" class="node"><title>s5</title>
<ellipse fill="none" stroke="black" cx="451.6" cy="-56.0468" rx="18" ry="18"/>
<text text-anchor="middle" x="451.6" y="-53.2468" font-family="arial" font-size="11.00">s5</text>
</g>
<!-- s4&#45;&gt;s5 -->
<g id="edge6" class="edge"><title>s4&#45;&gt;s5</title>
<path fill="none" stroke="black" d="M390.689,-56.0468C400.259,-56.0468 412.417,-56.0468 423.277,-56.0468"/>
<polygon fill="black" stroke="black" points="423.559,-59.5469 433.559,-56.0468 423.559,-52.5469 423.559,-59.5469"/>
<text text-anchor="middle" x="412.1" y="-59.2468" font-family="arial" font-size="11.00">0</text>
</g>
<!-- s6 -->
<g id="node9" class="node"><title>s6</title>
<ellipse fill="none" stroke="black" cx="529.6" cy="-56.0468" rx="18" ry="18"/>
<text text-anchor="middle" x="529.6" y="-53.2468" font-family="arial" font-size="11.00">s6</text>
</g>
<!-- s5&#45;&gt;s6 -->
<g id="edge7" class="edge"><title>s5&#45;&gt;s6</title>
<path fill="none" stroke="black" d="M469.846,-56.0468C479.077,-56.0468 490.665,-56.0468 501.105,-56.0468"/>
<polygon fill="black" stroke="black" points="501.423,-59.5469 511.423,-56.0468 501.423,-52.5469 501.423,-59.5469"/>
<text text-anchor="middle" x="490.6" y="-59.2468" font-family="arial" font-size="11.00">ε</text>
</g>
<!-- s7 -->
<g id="node10" class="node"><title>s7</title>
<ellipse fill="none" stroke="black" cx="608.6" cy="-56.0468" rx="18" ry="18"/>
<text text-anchor="middle" x="608.6" y="-53.2468" font-family="arial" font-size="11.00">s7</text>
</g>
<!-- s6&#45;&gt;s7 -->
<g id="edge8" class="edge"><title>s6&#45;&gt;s7</title>
<path fill="none" stroke="black" d="M547.689,-56.0468C557.259,-56.0468 569.417,-56.0468 580.277,-56.0468"/>
<polygon fill="black" stroke="black" points="580.559,-59.5469 590.559,-56.0468 580.559,-52.5469 580.559,-59.5469"/>
<text text-anchor="middle" x="569.1" y="-59.2468" font-family="arial" font-size="11.00">0</text>
</g>
<!-- s8 -->
<g id="node11" class="node"><title>s8</title>
<ellipse fill="none" stroke="black" cx="686.6" cy="-56.0468" rx="18" ry="18"/>
<text text-anchor="middle" x="686.6" y="-53.2468" font-family="arial" font-size="11.00">s8</text>
</g>
<!-- s7&#45;&gt;s8 -->
<g id="edge9" class="edge"><title>s7&#45;&gt;s8</title>
<path fill="none" stroke="black" d="M626.846,-56.0468C636.077,-56.0468 647.665,-56.0468 658.105,-56.0468"/>
<polygon fill="black" stroke="black" points="658.423,-59.5469 668.423,-56.0468 658.423,-52.5469 658.423,-59.5469"/>
<text text-anchor="middle" x="647.6" y="-59.2468" font-family="arial" font-size="11.00">ε</text>
</g>
<!-- s8&#45;&gt;s11 -->
<g id="edge11" class="edge"><title>s8&#45;&gt;s11</title>
<path fill="none" stroke="black" d="M704.756,-56.1399C712.1,-56.1556 720.771,-56.1422 728.6,-56.0468 788.605,-55.3157 858.462,-53.3819 899.225,-52.1447"/>
<polygon fill="black" stroke="black" points="899.541,-55.6368 909.429,-51.8311 899.326,-48.6401 899.541,-55.6368"/>
<text text-anchor="middle" x="804.1" y="-58.2468" font-family="arial" font-size="11.00">ε</text>
</g>
<!-- s9 -->
<g id="node12" class="node"><title>s9</title>
<ellipse fill="none" stroke="black" cx="764.6" cy="-24.0468" rx="18" ry="18"/>
<text text-anchor="middle" x="764.6" y="-21.2468" font-family="arial" font-size="11.00">s9</text>
</g>
<!-- s8&#45;&gt;s9 -->
<g id="edge10" class="edge"><title>s8&#45;&gt;s9</title>
<path fill="none" stroke="black" d="M703.347,-49.4164C713.368,-45.197 726.577,-39.6354 738.073,-34.795"/>
<polygon fill="black" stroke="black" points="739.753,-37.8852 747.611,-30.7788 737.037,-31.4337 739.753,-37.8852"/>
<text text-anchor="middle" x="725.6" y="-44.2468" font-family="arial" font-size="11.00">ε</text>
</g>
<!-- s10 -->
<g id="node13" class="node"><title>s10</title>
<ellipse fill="none" stroke="black" cx="846.647" cy="-21.0468" rx="21.0938" ry="21.0938"/>
<text text-anchor="middle" x="846.647" y="-18.2468" font-family="arial" font-size="11.00">s10</text>
</g>
<!-- s9&#45;&gt;s10 -->
<g id="edge12" class="edge"><title>s9&#45;&gt;s10</title>
<path fill="none" stroke="black" d="M782.969,-23.3959C792.447,-23.0407 804.452,-22.5907 815.413,-22.1799"/>
<polygon fill="black" stroke="black" points="815.625,-25.6746 825.486,-21.8024 815.362,-18.6795 815.625,-25.6746"/>
<text text-anchor="middle" x="804.1" y="-26.2468" font-family="arial" font-size="11.00">1</text>
</g>
<!-- s10&#45;&gt;s11 -->
<g id="edge14" class="edge"><title>s10&#45;&gt;s11</title>
<path fill="none" stroke="black" d="M866.754,-27.7048C876.792,-31.2028 889.378,-35.5883 900.922,-39.6108"/>
<polygon fill="black" stroke="black" points="900.113,-43.0354 910.708,-43.0209 902.416,-36.4252 900.113,-43.0354"/>
<text text-anchor="middle" x="888.694" y="-39.2468" font-family="arial" font-size="11.00">ε</text>
</g>
<!-- s10&#45;&gt;s9 -->
<g id="edge13" class="edge"><title>s10&#45;&gt;s9</title>
<path fill="none" stroke="black" d="M827.841,-10.9713C819.627,-7.50142 809.699,-4.95407 800.6,-7.04682 796.893,-7.89952 793.123,-9.19966 789.497,-10.7091"/>
<polygon fill="black" stroke="black" points="787.917,-7.58471 780.38,-15.0302 790.915,-13.9103 787.917,-7.58471"/>
<text text-anchor="middle" x="804.1" y="-10.2468" font-family="arial" font-size="11.00">ε</text>
</g>
</g>
</svg>
