<?xml version="1.0" encoding="UTF-8" standalone="no"?>
<!DOCTYPE svg PUBLIC "-//W3C//DTD SVG 1.1//EN"
 "http://www.w3.org/Graphics/SVG/1.1/DTD/svg11.dtd">
<!-- Generated by graphviz version 2.38.0 (20140413.2041)
 -->
<!-- Title: finite_state_machine Pages: 1 -->
<svg width="328pt" height="76pt"
 viewBox="0.00 0.00 327.60 76.00" xmlns="http://www.w3.org/2000/svg" xmlns:xlink="http://www.w3.org/1999/xlink">
<g id="graph0" class="graph" transform="scale(1 1) rotate(0) translate(4 72)">
<title>finite_state_machine</title>
<polygon fill="white" stroke="none" points="-4,4 -4,-72 323.6,-72 323.6,4 -4,4"/>
<!-- s3 -->
<g id="node1" class="node"><title>s3</title>
<ellipse fill="none" stroke="black" cx="297.6" cy="-46" rx="18" ry="18"/>
<ellipse fill="none" stroke="black" cx="297.6" cy="-46" rx="22" ry="22"/>
<text text-anchor="middle" x="297.6" y="-43.2" font-family="arial" font-size="11.00">s3</text>
</g>
<!-- start -->
<g id="node2" class="node"><title>start</title>
<ellipse fill="black" stroke="black" cx="1.8" cy="-50" rx="1.8" ry="1.8"/>
</g>
<!-- s0 -->
<g id="node3" class="node"><title>s0</title>
<ellipse fill="none" stroke="black" cx="58.6" cy="-50" rx="18" ry="18"/>
<text text-anchor="middle" x="58.6" y="-47.2" font-family="arial" font-size="11.00">s0</text>
</g>
<!-- start&#45;&gt;s0 -->
<g id="edge1" class="edge"><title>start&#45;&gt;s0</title>
<path fill="none" stroke="black" d="M3.75116,-50C7.11489,-50 18.875,-50 30.5503,-50"/>
<polygon fill="black" stroke="black" points="30.5754,-53.5001 40.5754,-50 30.5753,-46.5001 30.5754,-53.5001"/>
</g>
<!-- s0&#45;&gt;s3 -->
<g id="edge3" class="edge"><title>s0&#45;&gt;s3</title>
<path fill="none" stroke="black" d="M76.7557,-50.0487C84.0994,-50.0569 92.7703,-50.0499 100.6,-50 170.382,-49.5555 187.852,-50.2318 257.6,-48 260.15,-47.9184 262.792,-47.8176 265.445,-47.705"/>
<polygon fill="black" stroke="black" points="265.732,-51.1954 275.556,-47.2278 265.402,-44.2032 265.732,-51.1954"/>
<text text-anchor="middle" x="176.1" y="-53.2" font-family="arial" font-size="11.00">ε</text>
</g>
<!-- s1 -->
<g id="node4" class="node"><title>s1</title>
<ellipse fill="none" stroke="black" cx="136.6" cy="-18" rx="18" ry="18"/>
<text text-anchor="middle" x="136.6" y="-15.2" font-family="arial" font-size="11.00">s1</text>
</g>
<!-- s0&#45;&gt;s1 -->
<g id="edge2" class="edge"><title>s0&#45;&gt;s1</title>
<path fill="none" stroke="black" d="M75.3472,-43.3696C85.3683,-39.1502 98.5772,-33.5885 110.073,-28.7482"/>
<polygon fill="black" stroke="black" points="111.753,-31.8384 119.611,-24.732 109.037,-25.3869 111.753,-31.8384"/>
<text text-anchor="middle" x="97.6" y="-38.2" font-family="arial" font-size="11.00">ε</text>
</g>
<!-- s2 -->
<g id="node5" class="node"><title>s2</title>
<ellipse fill="none" stroke="black" cx="215.6" cy="-18" rx="18" ry="18"/>
<text text-anchor="middle" x="215.6" y="-15.2" font-family="arial" font-size="11.00">s2</text>
</g>
<!-- s1&#45;&gt;s2 -->
<g id="edge4" class="edge"><title>s1&#45;&gt;s2</title>
<path fill="none" stroke="black" d="M154.689,-18C164.259,-18 176.417,-18 187.277,-18"/>
<polygon fill="black" stroke="black" points="187.559,-21.5001 197.559,-18 187.559,-14.5001 187.559,-21.5001"/>
<text text-anchor="middle" x="176.1" y="-21.2" font-family="arial" font-size="11.00">1</text>
</g>
<!-- s2&#45;&gt;s3 -->
<g id="edge6" class="edge"><title>s2&#45;&gt;s3</title>
<path fill="none" stroke="black" d="M232.789,-23.6662C242.535,-27.0774 255.247,-31.5265 266.757,-35.555"/>
<polygon fill="black" stroke="black" points="265.863,-38.9502 276.458,-38.9502 268.175,-32.3432 265.863,-38.9502"/>
<text text-anchor="middle" x="254.6" y="-35.2" font-family="arial" font-size="11.00">ε</text>
</g>
<!-- s2&#45;&gt;s1 -->
<g id="edge5" class="edge"><title>s2&#45;&gt;s1</title>
<path fill="none" stroke="black" d="M200.157,-7.98327C192.203,-3.6311 182.054,0.0584741 172.6,-2 169.099,-2.76224 165.529,-3.90721 162.073,-5.24111"/>
<polygon fill="black" stroke="black" points="160.52,-2.10079 152.784,-9.33983 163.346,-8.50508 160.52,-2.10079"/>
<text text-anchor="middle" x="176.1" y="-5.2" font-family="arial" font-size="11.00">ε</text>
</g>
</g>
</svg>
