<?xml version="1.0" encoding="UTF-8" standalone="no"?>
<!DOCTYPE svg PUBLIC "-//W3C//DTD SVG 1.1//EN"
 "http://www.w3.org/Graphics/SVG/1.1/DTD/svg11.dtd">
<!-- Generated by graphviz version 2.38.0 (20140413.2041)
 -->
<!-- Title: finite_state_machine Pages: 1 -->
<svg width="289pt" height="181pt"
 viewBox="0.00 0.00 289.00 180.80" xmlns="http://www.w3.org/2000/svg" xmlns:xlink="http://www.w3.org/1999/xlink">
<g id="graph0" class="graph" transform="scale(1 1) rotate(0) translate(4 176.8)">
<title>finite_state_machine</title>
<polygon fill="white" stroke="none" points="-4,4 -4,-176.8 285,-176.8 285,4 -4,4"/>
<!-- q4 -->
<g id="node1" class="node"><title>q4</title>
<ellipse fill="none" stroke="black" cx="22" cy="-119.8" rx="18" ry="18"/>
<ellipse fill="none" stroke="black" cx="22" cy="-119.8" rx="22" ry="22"/>
<text text-anchor="middle" x="22" y="-117" font-family="arial" font-size="11.00">q4</text>
</g>
<!-- q4&#45;&gt;q4 -->
<g id="edge11" class="edge"><title>q4&#45;&gt;q4</title>
<path fill="none" stroke="black" d="M14.3173,-140.791C13.3688,-150.887 15.9297,-159.8 22,-159.8 25.8888,-159.8 28.3373,-156.142 29.3456,-150.859"/>
<polygon fill="black" stroke="black" points="32.846,-150.902 29.6827,-140.791 25.8499,-150.668 32.846,-150.902"/>
<text text-anchor="middle" x="22" y="-163" font-family="arial" font-size="11.00">1</text>
</g>
<!-- q3 -->
<g id="node6" class="node"><title>q3</title>
<ellipse fill="none" stroke="black" cx="105" cy="-119.8" rx="18" ry="18"/>
<text text-anchor="middle" x="105" y="-117" font-family="arial" font-size="11.00">q3</text>
</g>
<!-- q4&#45;&gt;q3 -->
<g id="edge10" class="edge"><title>q4&#45;&gt;q3</title>
<path fill="none" stroke="black" d="M44.2818,-119.8C54.2657,-119.8 66.2781,-119.8 76.9032,-119.8"/>
<polygon fill="black" stroke="black" points="76.9395,-123.3 86.9395,-119.8 76.9395,-116.3 76.9395,-123.3"/>
<text text-anchor="middle" x="65.5" y="-123" font-family="arial" font-size="11.00">0</text>
</g>
<!-- start -->
<g id="node2" class="node"><title>start</title>
<ellipse fill="black" stroke="black" cx="184" cy="-1.8" rx="1.8" ry="1.8"/>
</g>
<!-- q0 -->
<g id="node3" class="node"><title>q0</title>
<ellipse fill="none" stroke="black" cx="263" cy="-34.8" rx="18" ry="18"/>
<text text-anchor="middle" x="263" y="-32" font-family="arial" font-size="11.00">q0</text>
</g>
<!-- start&#45;&gt;q0 -->
<g id="edge1" class="edge"><title>start&#45;&gt;q0</title>
<path fill="none" stroke="black" d="M186.064,-2.0802C190.895,-3.36734 211.207,-8.94436 227,-15.8 230.571,-17.3503 234.265,-19.138 237.855,-20.9835"/>
<polygon fill="black" stroke="black" points="236.492,-24.2249 246.957,-25.8806 239.809,-18.0604 236.492,-24.2249"/>
</g>
<!-- q0&#45;&gt;q0 -->
<g id="edge2" class="edge"><title>q0&#45;&gt;q0</title>
<path fill="none" stroke="black" d="M256.266,-51.8373C254.892,-61.6579 257.137,-70.8 263,-70.8 266.665,-70.8 268.916,-67.2289 269.753,-62.1529"/>
<polygon fill="black" stroke="black" points="273.252,-61.8307 269.734,-51.8373 266.252,-61.8439 273.252,-61.8307"/>
<text text-anchor="middle" x="263" y="-74" font-family="arial" font-size="11.00">0</text>
</g>
<!-- q1 -->
<g id="node4" class="node"><title>q1</title>
<ellipse fill="none" stroke="black" cx="184" cy="-73.8" rx="18" ry="18"/>
<text text-anchor="middle" x="184" y="-71" font-family="arial" font-size="11.00">q1</text>
</g>
<!-- q0&#45;&gt;q1 -->
<g id="edge3" class="edge"><title>q0&#45;&gt;q1</title>
<path fill="none" stroke="black" d="M244.971,-32.2392C237.054,-31.7779 227.708,-32.3104 220,-35.8 212.697,-39.1062 206.228,-44.7356 200.9,-50.6629"/>
<polygon fill="black" stroke="black" points="197.935,-48.763 194.37,-58.7403 203.379,-53.1635 197.935,-48.763"/>
<text text-anchor="middle" x="223.5" y="-39" font-family="arial" font-size="11.00">1</text>
</g>
<!-- q1&#45;&gt;q0 -->
<g id="edge4" class="edge"><title>q1&#45;&gt;q0</title>
<path fill="none" stroke="black" d="M200.582,-65.9078C211.193,-60.5336 225.455,-53.31 237.564,-47.1765"/>
<polygon fill="black" stroke="black" points="239.364,-50.1882 246.704,-42.5474 236.201,-43.9435 239.364,-50.1882"/>
<text text-anchor="middle" x="223.5" y="-59" font-family="arial" font-size="11.00">0</text>
</g>
<!-- q2 -->
<g id="node5" class="node"><title>q2</title>
<ellipse fill="none" stroke="black" cx="263" cy="-124.8" rx="18" ry="18"/>
<text text-anchor="middle" x="263" y="-122" font-family="arial" font-size="11.00">q2</text>
</g>
<!-- q1&#45;&gt;q2 -->
<g id="edge5" class="edge"><title>q1&#45;&gt;q2</title>
<path fill="none" stroke="black" d="M199.483,-83.3927C210.668,-90.8011 226.356,-101.192 239.219,-109.711"/>
<polygon fill="black" stroke="black" points="237.312,-112.646 247.582,-115.25 241.177,-106.81 237.312,-112.646"/>
<text text-anchor="middle" x="223.5" y="-105" font-family="arial" font-size="11.00">1</text>
</g>
<!-- q2&#45;&gt;q2 -->
<g id="edge7" class="edge"><title>q2&#45;&gt;q2</title>
<path fill="none" stroke="black" d="M256.266,-141.837C254.892,-151.658 257.137,-160.8 263,-160.8 266.665,-160.8 268.916,-157.229 269.753,-152.153"/>
<polygon fill="black" stroke="black" points="273.252,-151.831 269.734,-141.837 266.252,-151.844 273.252,-151.831"/>
<text text-anchor="middle" x="263" y="-164" font-family="arial" font-size="11.00">1</text>
</g>
<!-- q2&#45;&gt;q3 -->
<g id="edge6" class="edge"><title>q2&#45;&gt;q3</title>
<path fill="none" stroke="black" d="M244.632,-124.243C217.642,-123.378 165.409,-121.704 133.331,-120.676"/>
<polygon fill="black" stroke="black" points="133.398,-117.176 123.291,-120.354 133.173,-124.173 133.398,-117.176"/>
<text text-anchor="middle" x="184" y="-126" font-family="arial" font-size="11.00">0</text>
</g>
<!-- q3&#45;&gt;q4 -->
<g id="edge8" class="edge"><title>q3&#45;&gt;q4</title>
<path fill="none" stroke="black" d="M88.8164,-111.14C82.8388,-108.196 75.7894,-105.278 69,-103.8 62.9663,-102.486 56.6315,-103.224 50.6584,-104.95"/>
<polygon fill="black" stroke="black" points="49.1668,-101.773 41.0648,-108.6 51.6558,-108.315 49.1668,-101.773"/>
<text text-anchor="middle" x="65.5" y="-107" font-family="arial" font-size="11.00">0</text>
</g>
<!-- q3&#45;&gt;q1 -->
<g id="edge9" class="edge"><title>q3&#45;&gt;q1</title>
<path fill="none" stroke="black" d="M120.846,-110.931C131.818,-104.376 146.975,-95.3216 159.574,-87.795"/>
<polygon fill="black" stroke="black" points="161.409,-90.7753 168.199,-82.642 157.819,-84.766 161.409,-90.7753"/>
<text text-anchor="middle" x="144.5" y="-102" font-family="arial" font-size="11.00">1</text>
</g>
</g>
</svg>
