<?xml version="1.0" encoding="UTF-8" standalone="no"?>
<!DOCTYPE svg PUBLIC "-//W3C//DTD SVG 1.1//EN"
 "http://www.w3.org/Graphics/SVG/1.1/DTD/svg11.dtd">
<!-- Generated by graphviz version 2.38.0 (20140413.2041)
 -->
<!-- Title: finite_state_machine Pages: 1 -->
<svg width="1486pt" height="197pt"
 viewBox="0.00 0.00 1485.54 197.05" xmlns="http://www.w3.org/2000/svg" xmlns:xlink="http://www.w3.org/1999/xlink">
<g id="graph0" class="graph" transform="scale(1 1) rotate(0) translate(4 193.047)">
<title>finite_state_machine</title>
<polygon fill="white" stroke="none" points="-4,4 -4,-193.047 1481.54,-193.047 1481.54,4 -4,4"/>
<!-- s19 -->
<g id="node1" class="node"><title>s19</title>
<ellipse fill="none" stroke="black" cx="1452.49" cy="-51.0468" rx="21.0862" ry="21.0862"/>
<ellipse fill="none" stroke="black" cx="1452.49" cy="-51.0468" rx="25.0937" ry="25.0937"/>
<text text-anchor="middle" x="1452.49" y="-48.2468" font-family="arial" font-size="11.00">s19</text>
</g>
<!-- start -->
<g id="node2" class="node"><title>start</title>
<ellipse fill="black" stroke="black" cx="1.8" cy="-49.0468" rx="1.8" ry="1.8"/>
</g>
<!-- s0 -->
<g id="node3" class="node"><title>s0</title>
<ellipse fill="none" stroke="black" cx="58.6" cy="-49.0468" rx="18" ry="18"/>
<text text-anchor="middle" x="58.6" y="-46.2468" font-family="arial" font-size="11.00">s0</text>
</g>
<!-- start&#45;&gt;s0 -->
<g id="edge1" class="edge"><title>start&#45;&gt;s0</title>
<path fill="none" stroke="black" d="M3.75116,-49.0468C7.11489,-49.0468 18.875,-49.0468 30.5503,-49.0468"/>
<polygon fill="black" stroke="black" points="30.5754,-52.5469 40.5754,-49.0468 30.5753,-45.5469 30.5754,-52.5469"/>
</g>
<!-- s1 -->
<g id="node4" class="node"><title>s1</title>
<ellipse fill="none" stroke="black" cx="136.6" cy="-91.0468" rx="18" ry="18"/>
<text text-anchor="middle" x="136.6" y="-88.2468" font-family="arial" font-size="11.00">s1</text>
</g>
<!-- s0&#45;&gt;s1 -->
<g id="edge2" class="edge"><title>s0&#45;&gt;s1</title>
<path fill="none" stroke="black" d="M74.6152,-57.3447C85.2326,-63.2122 99.6847,-71.1989 111.855,-77.9247"/>
<polygon fill="black" stroke="black" points="110.171,-80.9926 120.616,-82.7662 113.557,-74.8659 110.171,-80.9926"/>
<text text-anchor="middle" x="97.6" y="-74.2468" font-family="arial" font-size="11.00">ε</text>
</g>
<!-- s7 -->
<g id="node5" class="node"><title>s7</title>
<ellipse fill="none" stroke="black" cx="449.6" cy="-56.0468" rx="18" ry="18"/>
<text text-anchor="middle" x="449.6" y="-53.2468" font-family="arial" font-size="11.00">s7</text>
</g>
<!-- s0&#45;&gt;s7 -->
<g id="edge3" class="edge"><title>s0&#45;&gt;s7</title>
<path fill="none" stroke="black" d="M75.9955,-43.5405C91.2478,-38.9123 114.7,-33.0468 135.6,-33.0468 135.6,-33.0468 135.6,-33.0468 372.6,-33.0468 390.185,-33.0468 409.115,-38.7576 423.684,-44.4879"/>
<polygon fill="black" stroke="black" points="422.427,-47.756 433.003,-48.3882 425.13,-41.2987 422.427,-47.756"/>
<text text-anchor="middle" x="254.1" y="-36.2468" font-family="arial" font-size="11.00">ε</text>
</g>
<!-- s2 -->
<g id="node6" class="node"><title>s2</title>
<ellipse fill="none" stroke="black" cx="214.6" cy="-171.047" rx="18" ry="18"/>
<text text-anchor="middle" x="214.6" y="-168.247" font-family="arial" font-size="11.00">s2</text>
</g>
<!-- s1&#45;&gt;s2 -->
<g id="edge4" class="edge"><title>s1&#45;&gt;s2</title>
<path fill="none" stroke="black" d="M149.811,-103.9C161.848,-116.571 180.422,-136.123 194.429,-150.867"/>
<polygon fill="black" stroke="black" points="192.245,-153.65 201.67,-158.489 197.32,-148.828 192.245,-153.65"/>
<text text-anchor="middle" x="175.6" y="-136.247" font-family="arial" font-size="11.00">ε</text>
</g>
<!-- s4 -->
<g id="node7" class="node"><title>s4</title>
<ellipse fill="none" stroke="black" cx="214.6" cy="-117.047" rx="18" ry="18"/>
<text text-anchor="middle" x="214.6" y="-114.247" font-family="arial" font-size="11.00">s4</text>
</g>
<!-- s1&#45;&gt;s4 -->
<g id="edge5" class="edge"><title>s1&#45;&gt;s4</title>
<path fill="none" stroke="black" d="M154.091,-96.6884C163.918,-100.05 176.606,-104.391 187.74,-108.2"/>
<polygon fill="black" stroke="black" points="186.808,-111.58 197.402,-111.506 189.074,-104.957 186.808,-111.58"/>
<text text-anchor="middle" x="175.6" y="-107.247" font-family="arial" font-size="11.00">ε</text>
</g>
<!-- s8 -->
<g id="node11" class="node"><title>s8</title>
<ellipse fill="none" stroke="black" cx="527.6" cy="-56.0468" rx="18" ry="18"/>
<text text-anchor="middle" x="527.6" y="-53.2468" font-family="arial" font-size="11.00">s8</text>
</g>
<!-- s7&#45;&gt;s8 -->
<g id="edge12" class="edge"><title>s7&#45;&gt;s8</title>
<path fill="none" stroke="black" d="M467.846,-56.0468C477.077,-56.0468 488.665,-56.0468 499.105,-56.0468"/>
<polygon fill="black" stroke="black" points="499.423,-59.5469 509.423,-56.0468 499.423,-52.5469 499.423,-59.5469"/>
<text text-anchor="middle" x="488.6" y="-59.2468" font-family="arial" font-size="11.00">ε</text>
</g>
<!-- s3 -->
<g id="node8" class="node"><title>s3</title>
<ellipse fill="none" stroke="black" cx="293.6" cy="-171.047" rx="18" ry="18"/>
<text text-anchor="middle" x="293.6" y="-168.247" font-family="arial" font-size="11.00">s3</text>
</g>
<!-- s2&#45;&gt;s3 -->
<g id="edge6" class="edge"><title>s2&#45;&gt;s3</title>
<path fill="none" stroke="black" d="M232.689,-171.047C242.259,-171.047 254.417,-171.047 265.277,-171.047"/>
<polygon fill="black" stroke="black" points="265.559,-174.547 275.559,-171.047 265.559,-167.547 265.559,-174.547"/>
<text text-anchor="middle" x="254.1" y="-174.247" font-family="arial" font-size="11.00">0</text>
</g>
<!-- s5 -->
<g id="node10" class="node"><title>s5</title>
<ellipse fill="none" stroke="black" cx="293.6" cy="-117.047" rx="18" ry="18"/>
<text text-anchor="middle" x="293.6" y="-114.247" font-family="arial" font-size="11.00">s5</text>
</g>
<!-- s4&#45;&gt;s5 -->
<g id="edge8" class="edge"><title>s4&#45;&gt;s5</title>
<path fill="none" stroke="black" d="M232.689,-117.047C242.259,-117.047 254.417,-117.047 265.277,-117.047"/>
<polygon fill="black" stroke="black" points="265.559,-120.547 275.559,-117.047 265.559,-113.547 265.559,-120.547"/>
<text text-anchor="middle" x="254.1" y="-120.247" font-family="arial" font-size="11.00">1</text>
</g>
<!-- s6 -->
<g id="node9" class="node"><title>s6</title>
<ellipse fill="none" stroke="black" cx="371.6" cy="-94.0468" rx="18" ry="18"/>
<text text-anchor="middle" x="371.6" y="-91.2468" font-family="arial" font-size="11.00">s6</text>
</g>
<!-- s3&#45;&gt;s6 -->
<g id="edge7" class="edge"><title>s3&#45;&gt;s6</title>
<path fill="none" stroke="black" d="M306.811,-158.675C318.777,-146.552 337.204,-127.882 351.181,-113.721"/>
<polygon fill="black" stroke="black" points="353.886,-115.963 358.42,-106.388 348.904,-111.046 353.886,-115.963"/>
<text text-anchor="middle" x="332.6" y="-137.247" font-family="arial" font-size="11.00">ε</text>
</g>
<!-- s6&#45;&gt;s1 -->
<g id="edge11" class="edge"><title>s6&#45;&gt;s1</title>
<path fill="none" stroke="black" d="M353.575,-92.5863C341.798,-91.6512 325.76,-90.5263 311.6,-90.0468 259.838,-88.2942 199.366,-89.3376 165.067,-90.218"/>
<polygon fill="black" stroke="black" points="164.795,-86.724 154.894,-90.4944 164.985,-93.7214 164.795,-86.724"/>
<text text-anchor="middle" x="254.1" y="-92.2468" font-family="arial" font-size="11.00">ε</text>
</g>
<!-- s6&#45;&gt;s7 -->
<g id="edge10" class="edge"><title>s6&#45;&gt;s7</title>
<path fill="none" stroke="black" d="M387.98,-86.357C398.384,-81.1548 412.345,-74.1741 424.247,-68.2233"/>
<polygon fill="black" stroke="black" points="425.864,-71.3279 433.243,-63.7253 422.734,-65.0669 425.864,-71.3279"/>
<text text-anchor="middle" x="410.6" y="-79.2468" font-family="arial" font-size="11.00">ε</text>
</g>
<!-- s5&#45;&gt;s6 -->
<g id="edge9" class="edge"><title>s5&#45;&gt;s6</title>
<path fill="none" stroke="black" d="M311.091,-112.056C320.851,-109.102 333.434,-105.295 344.513,-101.942"/>
<polygon fill="black" stroke="black" points="345.584,-105.274 354.141,-99.0277 343.556,-98.5744 345.584,-105.274"/>
<text text-anchor="middle" x="332.6" y="-109.247" font-family="arial" font-size="11.00">ε</text>
</g>
<!-- s9 -->
<g id="node12" class="node"><title>s9</title>
<ellipse fill="none" stroke="black" cx="606.6" cy="-56.0468" rx="18" ry="18"/>
<text text-anchor="middle" x="606.6" y="-53.2468" font-family="arial" font-size="11.00">s9</text>
</g>
<!-- s8&#45;&gt;s9 -->
<g id="edge13" class="edge"><title>s8&#45;&gt;s9</title>
<path fill="none" stroke="black" d="M545.689,-56.0468C555.259,-56.0468 567.417,-56.0468 578.277,-56.0468"/>
<polygon fill="black" stroke="black" points="578.559,-59.5469 588.559,-56.0468 578.559,-52.5469 578.559,-59.5469"/>
<text text-anchor="middle" x="567.1" y="-59.2468" font-family="arial" font-size="11.00">1</text>
</g>
<!-- s10 -->
<g id="node13" class="node"><title>s10</title>
<ellipse fill="none" stroke="black" cx="687.647" cy="-56.0468" rx="21.0938" ry="21.0938"/>
<text text-anchor="middle" x="687.647" y="-53.2468" font-family="arial" font-size="11.00">s10</text>
</g>
<!-- s9&#45;&gt;s10 -->
<g id="edge14" class="edge"><title>s9&#45;&gt;s10</title>
<path fill="none" stroke="black" d="M624.752,-56.0468C633.947,-56.0468 645.55,-56.0468 656.219,-56.0468"/>
<polygon fill="black" stroke="black" points="656.452,-59.5469 666.452,-56.0468 656.452,-52.5469 656.452,-59.5469"/>
<text text-anchor="middle" x="645.6" y="-59.2468" font-family="arial" font-size="11.00">ε</text>
</g>
<!-- s11 -->
<g id="node14" class="node"><title>s11</title>
<ellipse fill="none" stroke="black" cx="772.74" cy="-56.0468" rx="21.0938" ry="21.0938"/>
<text text-anchor="middle" x="772.74" y="-53.2468" font-family="arial" font-size="11.00">s11</text>
</g>
<!-- s10&#45;&gt;s11 -->
<g id="edge15" class="edge"><title>s10&#45;&gt;s11</title>
<path fill="none" stroke="black" d="M708.761,-56.0468C718.488,-56.0468 730.372,-56.0468 741.186,-56.0468"/>
<polygon fill="black" stroke="black" points="741.523,-59.5469 751.523,-56.0468 741.523,-52.5469 741.523,-59.5469"/>
<text text-anchor="middle" x="730.194" y="-59.2468" font-family="arial" font-size="11.00">1</text>
</g>
<!-- s12 -->
<g id="node15" class="node"><title>s12</title>
<ellipse fill="none" stroke="black" cx="856.834" cy="-56.0468" rx="21.0938" ry="21.0938"/>
<text text-anchor="middle" x="856.834" y="-53.2468" font-family="arial" font-size="11.00">s12</text>
</g>
<!-- s11&#45;&gt;s12 -->
<g id="edge16" class="edge"><title>s11&#45;&gt;s12</title>
<path fill="none" stroke="black" d="M794.033,-56.0468C803.577,-56.0468 815.152,-56.0468 825.693,-56.0468"/>
<polygon fill="black" stroke="black" points="825.775,-59.5469 835.775,-56.0468 825.775,-52.5469 825.775,-59.5469"/>
<text text-anchor="middle" x="814.787" y="-59.2468" font-family="arial" font-size="11.00">ε</text>
</g>
<!-- s13 -->
<g id="node16" class="node"><title>s13</title>
<ellipse fill="none" stroke="black" cx="941.928" cy="-56.0468" rx="21.0938" ry="21.0938"/>
<text text-anchor="middle" x="941.928" y="-53.2468" font-family="arial" font-size="11.00">s13</text>
</g>
<!-- s12&#45;&gt;s13 -->
<g id="edge17" class="edge"><title>s12&#45;&gt;s13</title>
<path fill="none" stroke="black" d="M877.949,-56.0468C887.675,-56.0468 899.559,-56.0468 910.373,-56.0468"/>
<polygon fill="black" stroke="black" points="910.71,-59.5469 920.71,-56.0468 910.71,-52.5469 910.71,-59.5469"/>
<text text-anchor="middle" x="899.381" y="-59.2468" font-family="arial" font-size="11.00">0</text>
</g>
<!-- s14 -->
<g id="node17" class="node"><title>s14</title>
<ellipse fill="none" stroke="black" cx="1026.02" cy="-56.0468" rx="21.0938" ry="21.0938"/>
<text text-anchor="middle" x="1026.02" y="-53.2468" font-family="arial" font-size="11.00">s14</text>
</g>
<!-- s13&#45;&gt;s14 -->
<g id="edge18" class="edge"><title>s13&#45;&gt;s14</title>
<path fill="none" stroke="black" d="M963.221,-56.0468C972.764,-56.0468 984.339,-56.0468 994.88,-56.0468"/>
<polygon fill="black" stroke="black" points="994.962,-59.5469 1004.96,-56.0468 994.962,-52.5469 994.962,-59.5469"/>
<text text-anchor="middle" x="983.975" y="-59.2468" font-family="arial" font-size="11.00">ε</text>
</g>
<!-- s15 -->
<g id="node18" class="node"><title>s15</title>
<ellipse fill="none" stroke="black" cx="1111.12" cy="-56.0468" rx="21.0938" ry="21.0938"/>
<text text-anchor="middle" x="1111.12" y="-53.2468" font-family="arial" font-size="11.00">s15</text>
</g>
<!-- s14&#45;&gt;s15 -->
<g id="edge19" class="edge"><title>s14&#45;&gt;s15</title>
<path fill="none" stroke="black" d="M1047.14,-56.0468C1056.86,-56.0468 1068.75,-56.0468 1079.56,-56.0468"/>
<polygon fill="black" stroke="black" points="1079.9,-59.5469 1089.9,-56.0468 1079.9,-52.5469 1079.9,-59.5469"/>
<text text-anchor="middle" x="1068.57" y="-59.2468" font-family="arial" font-size="11.00">0</text>
</g>
<!-- s16 -->
<g id="node19" class="node"><title>s16</title>
<ellipse fill="none" stroke="black" cx="1195.21" cy="-56.0468" rx="21.0938" ry="21.0938"/>
<text text-anchor="middle" x="1195.21" y="-53.2468" font-family="arial" font-size="11.00">s16</text>
</g>
<!-- s15&#45;&gt;s16 -->
<g id="edge20" class="edge"><title>s15&#45;&gt;s16</title>
<path fill="none" stroke="black" d="M1132.41,-56.0468C1141.95,-56.0468 1153.53,-56.0468 1164.07,-56.0468"/>
<polygon fill="black" stroke="black" points="1164.15,-59.5469 1174.15,-56.0468 1164.15,-52.5469 1164.15,-59.5469"/>
<text text-anchor="middle" x="1153.16" y="-59.2468" font-family="arial" font-size="11.00">ε</text>
</g>
<!-- s16&#45;&gt;s19 -->
<g id="edge22" class="edge"><title>s16&#45;&gt;s19</title>
<path fill="none" stroke="black" d="M1216.38,-56.1469C1223.88,-56.1577 1232.46,-56.139 1240.26,-56.0468 1302.68,-55.309 1375.46,-53.3425 1417.24,-52.1069"/>
<polygon fill="black" stroke="black" points="1417.53,-55.6 1427.42,-51.8022 1417.32,-48.6031 1417.53,-55.6"/>
<text text-anchor="middle" x="1321.85" y="-57.2468" font-family="arial" font-size="11.00">ε</text>
</g>
<!-- s17 -->
<g id="node20" class="node"><title>s17</title>
<ellipse fill="none" stroke="black" cx="1279.3" cy="-21.0468" rx="21.0938" ry="21.0938"/>
<text text-anchor="middle" x="1279.3" y="-18.2468" font-family="arial" font-size="11.00">s17</text>
</g>
<!-- s16&#45;&gt;s17 -->
<g id="edge21" class="edge"><title>s16&#45;&gt;s17</title>
<path fill="none" stroke="black" d="M1214.84,-48.1048C1225.33,-43.6298 1238.65,-37.952 1250.37,-32.9543"/>
<polygon fill="black" stroke="black" points="1251.92,-36.099 1259.75,-28.9574 1249.18,-29.6598 1251.92,-36.099"/>
<text text-anchor="middle" x="1237.26" y="-43.2468" font-family="arial" font-size="11.00">ε</text>
</g>
<!-- s18 -->
<g id="node21" class="node"><title>s18</title>
<ellipse fill="none" stroke="black" cx="1364.4" cy="-21.0468" rx="21.0938" ry="21.0938"/>
<text text-anchor="middle" x="1364.4" y="-18.2468" font-family="arial" font-size="11.00">s18</text>
</g>
<!-- s17&#45;&gt;s18 -->
<g id="edge23" class="edge"><title>s17&#45;&gt;s18</title>
<path fill="none" stroke="black" d="M1300.42,-21.0468C1310.14,-21.0468 1322.03,-21.0468 1332.84,-21.0468"/>
<polygon fill="black" stroke="black" points="1333.18,-24.5469 1343.18,-21.0468 1333.18,-17.5469 1333.18,-24.5469"/>
<text text-anchor="middle" x="1321.85" y="-24.2468" font-family="arial" font-size="11.00">1</text>
</g>
<!-- s18&#45;&gt;s19 -->
<g id="edge25" class="edge"><title>s18&#45;&gt;s19</title>
<path fill="none" stroke="black" d="M1384.5,-27.7048C1394.54,-31.2028 1407.13,-35.5883 1418.67,-39.6108"/>
<polygon fill="black" stroke="black" points="1417.86,-43.0354 1428.46,-43.0209 1420.17,-36.4252 1417.86,-43.0354"/>
<text text-anchor="middle" x="1406.44" y="-39.2468" font-family="arial" font-size="11.00">ε</text>
</g>
<!-- s18&#45;&gt;s17 -->
<g id="edge24" class="edge"><title>s18&#45;&gt;s17</title>
<path fill="none" stroke="black" d="M1345.29,-11.7033C1339.13,-8.99706 1332.09,-6.40701 1325.35,-5.04682 1319.3,-3.82734 1312.97,-4.66408 1307.03,-6.46603"/>
<polygon fill="black" stroke="black" points="1305.54,-3.29285 1297.52,-10.2172 1308.1,-9.80488 1305.54,-3.29285"/>
<text text-anchor="middle" x="1321.85" y="-8.24682" font-family="arial" font-size="11.00">ε</text>
</g>
</g>
</svg>
