<?xml version="1.0" encoding="UTF-8" standalone="no"?>
<!DOCTYPE svg PUBLIC "-//W3C//DTD SVG 1.1//EN"
 "http://www.w3.org/Graphics/SVG/1.1/DTD/svg11.dtd">
<!-- Generated by graphviz version 2.38.0 (20140413.2041)
 -->
<!-- Title: finite_state_machine Pages: 1 -->
<svg width="463pt" height="236pt"
 viewBox="0.00 0.00 463.00 236.00" xmlns="http://www.w3.org/2000/svg" xmlns:xlink="http://www.w3.org/1999/xlink">
<g id="graph0" class="graph" transform="scale(1 1) rotate(0) translate(4 232)">
<title>finite_state_machine</title>
<polygon fill="white" stroke="none" points="-4,4 -4,-232 459,-232 459,4 -4,4"/>
<!-- q5 -->
<g id="node1" class="node"><title>q5</title>
<ellipse fill="none" stroke="black" cx="22" cy="-81" rx="18" ry="18"/>
<ellipse fill="none" stroke="black" cx="22" cy="-81" rx="22" ry="22"/>
<text text-anchor="middle" x="22" y="-78.2" font-family="arial" font-size="11.00">q5</text>
</g>
<!-- q6 -->
<g id="node2" class="node"><title>q6</title>
<ellipse fill="none" stroke="black" cx="109" cy="-131" rx="18" ry="18"/>
<ellipse fill="none" stroke="black" cx="109" cy="-131" rx="22" ry="22"/>
<text text-anchor="middle" x="109" y="-128.2" font-family="arial" font-size="11.00">q6</text>
</g>
<!-- q5&#45;&gt;q6 -->
<g id="edge13" class="edge"><title>q5&#45;&gt;q6</title>
<path fill="none" stroke="black" d="M41.4437,-91.8493C52.9164,-98.5979 67.8764,-107.398 80.7066,-114.945"/>
<polygon fill="black" stroke="black" points="79.1983,-118.118 89.5923,-120.172 82.7475,-112.085 79.1983,-118.118"/>
<text text-anchor="middle" x="65.5" y="-111.2" font-family="arial" font-size="11.00">1</text>
</g>
<!-- q1 -->
<g id="node6" class="node"><title>q1</title>
<ellipse fill="none" stroke="black" cx="437" cy="-79" rx="18" ry="18"/>
<text text-anchor="middle" x="437" y="-76.2" font-family="arial" font-size="11.00">q1</text>
</g>
<!-- q5&#45;&gt;q1 -->
<g id="edge12" class="edge"><title>q5&#45;&gt;q1</title>
<path fill="none" stroke="black" d="M32.6588,-61.3922C46.0099,-37.42 72.5312,-0 108,-0 108,-0 108,-0 359,-0 389.468,-0 411.803,-30.5063 424.348,-53.6048"/>
<polygon fill="black" stroke="black" points="421.298,-55.3263 428.972,-62.6311 427.528,-52.1351 421.298,-55.3263"/>
<text text-anchor="middle" x="239.5" y="-3.2" font-family="arial" font-size="11.00">0</text>
</g>
<!-- q7 -->
<g id="node3" class="node"><title>q7</title>
<ellipse fill="none" stroke="black" cx="196" cy="-131" rx="18" ry="18"/>
<ellipse fill="none" stroke="black" cx="196" cy="-131" rx="22" ry="22"/>
<text text-anchor="middle" x="196" y="-128.2" font-family="arial" font-size="11.00">q7</text>
</g>
<!-- q6&#45;&gt;q7 -->
<g id="edge15" class="edge"><title>q6&#45;&gt;q7</title>
<path fill="none" stroke="black" d="M131.011,-131C140.921,-131 152.947,-131 163.885,-131"/>
<polygon fill="black" stroke="black" points="163.936,-134.5 173.936,-131 163.936,-127.5 163.936,-134.5"/>
<text text-anchor="middle" x="152.5" y="-134.2" font-family="arial" font-size="11.00">1</text>
</g>
<!-- q6&#45;&gt;q1 -->
<g id="edge14" class="edge"><title>q6&#45;&gt;q1</title>
<path fill="none" stroke="black" d="M118.954,-150.714C131.868,-175.824 158.27,-216 195,-216 195,-216 195,-216 359,-216 384.099,-216 412.893,-145.238 427.107,-105.425"/>
<polygon fill="black" stroke="black" points="430.476,-106.394 430.475,-95.7989 423.869,-104.082 430.476,-106.394"/>
<text text-anchor="middle" x="279" y="-219.2" font-family="arial" font-size="11.00">0</text>
</g>
<!-- q7&#45;&gt;q7 -->
<g id="edge17" class="edge"><title>q7&#45;&gt;q7</title>
<path fill="none" stroke="black" d="M188.317,-151.991C187.369,-162.087 189.93,-171 196,-171 199.889,-171 202.337,-167.342 203.346,-162.059"/>
<polygon fill="black" stroke="black" points="206.846,-162.102 203.683,-151.991 199.85,-161.868 206.846,-162.102"/>
<text text-anchor="middle" x="196" y="-174.2" font-family="arial" font-size="11.00">1</text>
</g>
<!-- q4 -->
<g id="node9" class="node"><title>q4</title>
<ellipse fill="none" stroke="black" cx="279" cy="-121" rx="18" ry="18"/>
<text text-anchor="middle" x="279" y="-118.2" font-family="arial" font-size="11.00">q4</text>
</g>
<!-- q7&#45;&gt;q4 -->
<g id="edge16" class="edge"><title>q7&#45;&gt;q4</title>
<path fill="none" stroke="black" d="M217.86,-128.425C227.914,-127.183 240.1,-125.679 250.866,-124.35"/>
<polygon fill="black" stroke="black" points="251.532,-127.794 261.027,-123.095 250.674,-120.847 251.532,-127.794"/>
<text text-anchor="middle" x="239.5" y="-129.2" font-family="arial" font-size="11.00">0</text>
</g>
<!-- start -->
<g id="node4" class="node"><title>start</title>
<ellipse fill="black" stroke="black" cx="196" cy="-48" rx="1.8" ry="1.8"/>
</g>
<!-- q0 -->
<g id="node5" class="node"><title>q0</title>
<ellipse fill="none" stroke="black" cx="279" cy="-48" rx="18" ry="18"/>
<text text-anchor="middle" x="279" y="-45.2" font-family="arial" font-size="11.00">q0</text>
</g>
<!-- start&#45;&gt;q0 -->
<g id="edge1" class="edge"><title>start&#45;&gt;q0</title>
<path fill="none" stroke="black" d="M197.91,-48C203.114,-48 229.621,-48 250.735,-48"/>
<polygon fill="black" stroke="black" points="250.847,-51.5001 260.847,-48 250.847,-44.5001 250.847,-51.5001"/>
</g>
<!-- q0&#45;&gt;q1 -->
<g id="edge2" class="edge"><title>q0&#45;&gt;q1</title>
<path fill="none" stroke="black" d="M296.695,-51.3175C323.53,-56.6501 376.517,-67.1796 408.848,-73.6043"/>
<polygon fill="black" stroke="black" points="408.462,-77.0961 418.952,-75.6123 409.826,-70.2303 408.462,-77.0961"/>
<text text-anchor="middle" x="358" y="-70.2" font-family="arial" font-size="11.00">0</text>
</g>
<!-- q2 -->
<g id="node7" class="node"><title>q2</title>
<ellipse fill="none" stroke="black" cx="358" cy="-114" rx="18" ry="18"/>
<text text-anchor="middle" x="358" y="-111.2" font-family="arial" font-size="11.00">q2</text>
</g>
<!-- q0&#45;&gt;q2 -->
<g id="edge3" class="edge"><title>q0&#45;&gt;q2</title>
<path fill="none" stroke="black" d="M293.412,-59.4963C305.116,-69.5281 322.298,-84.2558 335.852,-95.8735"/>
<polygon fill="black" stroke="black" points="333.871,-98.7849 343.741,-102.635 338.427,-93.4701 333.871,-98.7849"/>
<text text-anchor="middle" x="318.5" y="-86.2" font-family="arial" font-size="11.00">1</text>
</g>
<!-- q1&#45;&gt;q1 -->
<g id="edge4" class="edge"><title>q1&#45;&gt;q1</title>
<path fill="none" stroke="black" d="M430.266,-96.0373C428.892,-105.858 431.137,-115 437,-115 440.665,-115 442.916,-111.429 443.753,-106.353"/>
<polygon fill="black" stroke="black" points="447.252,-106.031 443.734,-96.0373 440.252,-106.044 447.252,-106.031"/>
<text text-anchor="middle" x="437" y="-118.2" font-family="arial" font-size="11.00">0</text>
</g>
<!-- q1&#45;&gt;q2 -->
<g id="edge5" class="edge"><title>q1&#45;&gt;q2</title>
<path fill="none" stroke="black" d="M420.441,-86.0722C409.905,-90.8613 395.761,-97.2904 383.7,-102.773"/>
<polygon fill="black" stroke="black" points="382.237,-99.5929 374.582,-106.917 385.134,-105.965 382.237,-99.5929"/>
<text text-anchor="middle" x="397.5" y="-101.2" font-family="arial" font-size="11.00">1</text>
</g>
<!-- q2&#45;&gt;q1 -->
<g id="edge6" class="edge"><title>q2&#45;&gt;q1</title>
<path fill="none" stroke="black" d="M369.296,-99.7971C375.525,-92.4316 384.158,-84.1306 394,-80 398.632,-78.056 403.812,-77.0856 408.909,-76.7057"/>
<polygon fill="black" stroke="black" points="409.081,-80.2047 419.055,-76.6325 409.03,-73.2049 409.081,-80.2047"/>
<text text-anchor="middle" x="397.5" y="-83.2" font-family="arial" font-size="11.00">0</text>
</g>
<!-- q3 -->
<g id="node8" class="node"><title>q3</title>
<ellipse fill="none" stroke="black" cx="437" cy="-169" rx="18" ry="18"/>
<text text-anchor="middle" x="437" y="-166.2" font-family="arial" font-size="11.00">q3</text>
</g>
<!-- q2&#45;&gt;q3 -->
<g id="edge7" class="edge"><title>q2&#45;&gt;q3</title>
<path fill="none" stroke="black" d="M373.123,-124.088C384.411,-132.151 400.449,-143.607 413.502,-152.93"/>
<polygon fill="black" stroke="black" points="411.795,-156.012 421.967,-158.976 415.864,-150.316 411.795,-156.012"/>
<text text-anchor="middle" x="397.5" y="-147.2" font-family="arial" font-size="11.00">1</text>
</g>
<!-- q3&#45;&gt;q3 -->
<g id="edge9" class="edge"><title>q3&#45;&gt;q3</title>
<path fill="none" stroke="black" d="M430.266,-186.037C428.892,-195.858 431.137,-205 437,-205 440.665,-205 442.916,-201.429 443.753,-196.353"/>
<polygon fill="black" stroke="black" points="447.252,-196.031 443.734,-186.037 440.252,-196.044 447.252,-196.031"/>
<text text-anchor="middle" x="437" y="-208.2" font-family="arial" font-size="11.00">1</text>
</g>
<!-- q3&#45;&gt;q4 -->
<g id="edge8" class="edge"><title>q3&#45;&gt;q4</title>
<path fill="none" stroke="black" d="M419.142,-165.816C411.432,-164.25 402.206,-162.223 394,-160 358.322,-150.336 349.887,-146.215 315,-134 311.88,-132.908 308.614,-131.734 305.384,-130.556"/>
<polygon fill="black" stroke="black" points="306.577,-127.266 295.984,-127.081 304.15,-133.832 306.577,-127.266"/>
<text text-anchor="middle" x="358" y="-158.2" font-family="arial" font-size="11.00">0</text>
</g>
<!-- q4&#45;&gt;q5 -->
<g id="edge10" class="edge"><title>q4&#45;&gt;q5</title>
<path fill="none" stroke="black" d="M262.258,-114.322C250.328,-109.551 233.412,-103.396 218,-100 161.07,-87.4543 92.9672,-83.1909 54.1679,-81.7432"/>
<polygon fill="black" stroke="black" points="54.1465,-78.2406 44.0352,-81.405 53.9129,-85.2367 54.1465,-78.2406"/>
<text text-anchor="middle" x="152.5" y="-93.2" font-family="arial" font-size="11.00">0</text>
</g>
<!-- q4&#45;&gt;q2 -->
<g id="edge11" class="edge"><title>q4&#45;&gt;q2</title>
<path fill="none" stroke="black" d="M297.089,-119.446C306.659,-118.576 318.817,-117.471 329.677,-116.484"/>
<polygon fill="black" stroke="black" points="330.317,-119.94 339.959,-115.549 329.683,-112.969 330.317,-119.94"/>
<text text-anchor="middle" x="318.5" y="-121.2" font-family="arial" font-size="11.00">1</text>
</g>
</g>
</svg>
